<?xml version="1.0" encoding="UTF-8" standalone="no"?>
<svg width="309px" height="294px" viewBox="0 0 309 294" version="1.1" xmlns="http://www.w3.org/2000/svg" xmlns:xlink="http://www.w3.org/1999/xlink">
    <!-- Generator: Sketch 41.2 (35397) - http://www.bohemiancoding.com/sketch -->
    <title>email-icon</title>
    <desc>Created with Sketch.</desc>
    <defs>
        <rect id="path-1" x="0" y="0" width="309" height="294" rx="40"></rect>
    </defs>
    <g id="Page-1" stroke="none" stroke-width="1" fill="none" fill-rule="evenodd">
        <g id="Artboard">
            <g id="email-icon">
                <g id="Page-1">
                    <g id="email-icon">
                        <g id="Group">
                            <g id="e91-Clipped">
                                <mask id="mask-2" fill="white">
                                    <use xlink:href="#path-1"></use>
                                </mask>
                                <g id="path-1"></g>
                                <g id="e91" mask="url(#mask-2)">
                                    <g transform="translate(-61.000000, -8.000000)" id="Page-1">
                                        <g>
                                            <g id="e91" stroke-width="14" stroke="#FFFFFF" fill="#000000">
                                                <polyline id="Fill-211" points="431 299.902465 431 10.3766512 283.612367 158.351721 431 299.902465"></polyline>
                                                <polyline id="Fill-212" points="0 10.355093 0 299.902465 147.394817 158.344535 0 10.355093"></polyline>
                                                <path d="M9.97046667,0 L160.82765,151.48186 C161.704017,151.848349 164.211,154.46407 164.541433,155.204233 L207.217617,198.061814 C211.779033,202.301581 219.22815,202.294395 223.976333,197.874977 L266.437017,155.240163 C266.76745,154.485628 269.31035,151.841163 270.186717,151.474674 L421.051083,0 L9.97046667,0" id="Fill-213"></path>
                                                <path d="M273.4695,168.541535 L233.961167,208.208512 C228.717333,213.087837 222.058383,215.523907 215.428167,215.523907 C208.8626,215.523907 202.33295,213.13814 197.232783,208.388163 L157.537683,168.534349 L11.27065,309 L419.72935,309 L273.4695,168.541535" id="Fill-214"></path>
                                            </g>
                                        </g>
                                    </g>
                                </g>
                            </g>
                        </g>
                    </g>
                </g>
            </g>
        </g>
    </g>
</svg>